PathFileType	4	(X/Y/Z)	Walk5.trc
DataRate	CameraRate	NumFrames	NumMarkers	Units	OrigDataRate	OrigDataStartFrame	OrigNumFrames
200.000000	200.000000	6	59	mm	200.000000	661	826
Frame#	Times		RCAR		LFHD		RFHD		RWRU		LMT1		RACR1		LTH3		RASI		LTB1		RUA1		RFA1		LACR1		LLFC		LUA1		LTB4		LTB3		LToe		RTH2		STRN		LTH4		RBHD		LTH2		LElbow		RTH4		RLFC		CLAV		LASI		RTH3		LWRU		LFA1		RBack		C7		RTH1		RMT1		RMT5		LPSI		LCAR		RCAL		RToe		RLMAL		LTH1		LBHD		RPSI		RTB2		RTB4		RTB1		RElbow		RTB3		RMMAL		LTB2		LMT5		LWRR		RWRR		RElbowM		LLMAL		LMMAL		T10		LCAL		LElbowM
			X1	Y1	Z1	X2	Y2	Z2	X3	Y3	Z3	X4	Y4	Z4	X5	Y5	Z5	X6	Y6	Z6	X7	Y7	Z7	X8	Y8	Z8	X9	Y9	Z9	X10	Y10	Z10	X11	Y11	Z11	X12	Y12	Z12	X13	Y13	Z13	X14	Y14	Z14	X15	Y15	Z15	X16	Y16	Z16	X17	Y17	Z17	X18	Y18	Z18	X19	Y19	Z19	X20	Y20	Z20	X21	Y21	Z21	X22	Y22	Z22	X23	Y23	Z23	X24	Y24	Z24	X25	Y25	Z25	X26	Y26	Z26	X27	Y27	Z27	X28	Y28	Z28	X29	Y29	Z29	X30	Y30	Z30	X31	Y31	Z31	X32	Y32	Z32	X33	Y33	Z33	X34	Y34	Z34	X35	Y35	Z35	X36	Y36	Z36	X37	Y37	Z37	X38	Y38	Z38	X39	Y39	Z39	X40	Y40	Z40	X41	Y41	Z41	X42	Y42	Z42	X43	Y43	Z43	X44	Y44	Z44	X45	Y45	Z45	X46	Y46	Z46	X47	Y47	Z47	X48	Y48	Z48	X49	Y49	Z49	X50	Y50	Z50	X51	Y51	Z51	X52	Y52	Z52	X53	Y53	Z53	X54	Y54	Z54	X55	Y55	Z55	X56	Y56	Z56	X57	Y57	Z57	X58	Y58	Z58	X59	Y59	Z59

661	3.305	125.05	776.64	364.86	197.47	1586	32.868	204.08	1581.8	130.22	80.87	825.19	385.88	-102.3	66.183	-100.16	69.243	1370.8	252.76	131.34	574.72	-185.64	182.31	966.23	214.03	70.093	339.77	-106.22	45.638	1223.2	334.76	86.966	934.64	366.32	74.122	1388.1	-106.84	102.98	503.63	-176.21	63.668	1245.1	-193.19	1.9944	288.44	-102.31	-61.826	229.99	-98.739	-76.515	44.921	-118.37	157.56	639.47	206.36	216.9	1245.1	84.971	125.91	661.75	-197.92	34.447	1578.9	150.25	180.66	667.19	-172.57	17.344	1100.8	-234.39	102.42	640.86	230.57	92.235	462	195.19	149.14	1354.5	74.241	157.01	993.5	-133.05	94.614	555.42	212.29	110.47	878.59	-293.21	101.13	995.53	-258.42	-63.546	1305.6	172.87	-13.498	1419.4	89.004	122.14	720.2	246.96	220.12	35.468	84.571	211.96	27.079	177.18	-77.946	990.17	-43.308	158.3	841.23	-288.81	32.845	26.625	129.84	262.69	33.52	90.975	86.931	64.675	172.17	123.51	746.04	-210.09	44.322	1572.7	14.278	-78.777	983.91	90.791	122.82	274.39	175.5	131.53	269.31	114.75	146.3	354.98	110.48	10.843	1056.5	364.97	129.04	184.49	117.2	103.35	74.563	86.867	-19.679	310.74	-154.64	-147.81	86.249	-169.22	154.16	887.21	-232.65	118.29	836.72	322.97	-28.762	1044.4	282.47	-178.07	203.65	-131.06	-140.86	181.95	-58.354	-56.886	1089.9	45.247	-223.7	205.36	-68.575	46.793	1065.6	-137.67
662	3.31	131.87	777.51	366.09	202.06	1586.2	33.353	208.74	1582	130.7	87.474	825.87	387.08	-89.762	66.211	-101.38	74.186	1371	253.29	138.08	575.81	-185.92	186.07	965.24	214.31	79.391	340.59	-106.88	50.92	1223.5	335.41	93.043	935.32	367.36	78.58	1388.1	-106.45	110.39	504.6	-176.19	67.611	1244.9	-192.56	11.785	288.62	-102.98	-51.671	229.81	-99.404	-63.701	45.201	-119.75	159.68	639.12	206.68	221.4	1244.7	85.175	131.94	662.81	-198.08	39.11	1579.2	150.83	186.69	668.68	-172.77	20.602	1101	-233.8	104.57	640.91	230.96	93.298	462.04	195.35	153.65	1354.6	74.745	160.65	993.04	-132.83	96.332	555.47	212.58	110.72	877.88	-293.59	103.03	994.86	-258.57	-58.962	1306	173.78	-8.9143	1419.7	89.531	124.75	720.06	247.41	220.14	35.495	84.62	211.94	27.055	177.23	-74.163	990.54	-42.646	158.25	840.16	-289.79	32.828	26.637	129.81	262.75	33.513	91.066	86.929	64.696	172.13	128.77	747.18	-210.07	48.904	1572.9	14.861	-74.75	984.41	91.481	123.27	274.38	175.59	131.96	269.28	114.88	146.91	354.94	110.59	16.415	1056.9	366.04	129.34	184.46	117.29	103.41	74.566	86.87	-10.617	311.35	-154.87	-135.69	86.235	-170.21	155.03	885.98	-233.46	124.74	837.52	324.1	-23.429	1044.5	283.7	-167.91	202.59	-130.97	-130.22	180.84	-58.505	-52.664	1090.4	45.869	-213.75	203	-68.366	48.762	1065.5	-137.03
663	3.315	138.65	778.38	367.35	206.66	1586.3	33.803	213.4	1582.2	131.14	94.052	826.56	388.28	-76.946	66.109	-102.39	79.143	1371.3	253.78	144.69	576.86	-186.16	189.8	964.22	214.62	88.719	341.36	-107.48	56.174	1223.7	335.99	99.105	936	368.37	83.077	1388	-106.06	117.76	505.51	-176.14	71.543	1244.7	-191.96	21.626	288.7	-103.57	-41.385	229.48	-100.01	-50.551	45.386	-120.86	161.81	638.74	207.01	225.9	1244.3	85.311	137.9	663.84	-198.22	43.778	1579.5	151.38	192.66	670.12	-172.99	23.831	1101.2	-233.24	106.72	640.91	231.34	94.376	462.06	195.5	158.16	1354.6	75.226	164.26	992.51	-132.65	98.046	555.51	212.84	110.92	877.18	-294	104.91	994.18	-258.74	-54.384	1306.4	174.65	-4.3388	1420.1	90.029	127.34	719.89	247.86	220.15	35.523	84.665	211.92	27.035	177.28	-70.354	990.92	-42.043	158.15	839.11	-290.8	32.812	26.649	129.76	262.81	33.503	91.155	86.933	64.719	172.09	134	748.26	-210.07	53.488	1573.1	15.411	-70.751	984.92	92.106	123.72	274.37	175.68	132.43	269.25	115	147.56	354.88	110.71	21.979	1057.2	367.06	129.67	184.42	117.38	103.48	74.566	86.861	-1.4553	311.79	-155.06	-123.21	85.939	-171.07	155.86	884.75	-234.31	131.16	838.29	325.24	-18.087	1044.5	284.86	-157.53	201.21	-130.93	-119.41	179.53	-58.643	-48.46	1090.9	46.46	-203.62	200.32	-68.275	50.469	1065.4	-136.39
664	3.32	145.39	779.23	368.62	211.26	1586.5	34.218	218.06	1582.4	131.55	100.6	827.25	389.48	-63.856	65.877	-103.21	84.112	1371.5	254.23	151.21	577.86	-186.36	193.48	963.16	214.95	98.077	342.07	-108.01	61.395	1223.8	336.52	105.15	936.67	369.35	87.611	1388	-105.68	125.09	506.37	-176.05	75.462	1244.6	-191.39	31.521	288.67	-104.06	-30.97	228.98	-100.54	-37.077	45.479	-121.72	163.94	638.33	207.36	230.41	1243.8	85.377	143.78	664.81	-198.35	48.453	1579.7	151.9	198.57	671.49	-173.21	27.028	1101.5	-232.69	108.85	640.89	231.7	95.473	462.08	195.63	162.66	1354.7	75.684	167.84	991.93	-132.51	99.759	555.53	213.08	111.1	876.51	-294.42	106.76	993.51	-258.93	-49.81	1306.8	175.5	0.2303	1420.3	90.5	129.92	719.71	248.33	220.18	35.551	84.705	211.9	27.017	177.33	-66.516	991.31	-41.502	158	838.08	-291.82	32.799	26.661	129.71	262.88	33.493	91.242	86.943	64.743	172.04	139.21	749.28	-210.08	58.074	1573.3	15.929	-66.779	985.43	92.665	124.2	274.35	175.77	132.96	269.21	115.11	148.26	354.82	110.83	27.531	1057.5	368.03	130.01	184.38	117.46	103.54	74.564	86.84	7.8084	312.04	-155.21	-110.37	85.376	-171.8	156.66	883.52	-235.19	137.57	839.05	326.37	-12.736	1044.5	285.95	-146.92	199.52	-130.92	-108.43	178.03	-58.763	-44.272	1091.3	47.021	-193.31	197.34	-68.282	51.942	1065.1	-135.75
665	3.325	152.1	780.07	369.9	215.87	1586.5	34.6	222.73	1582.5	131.92	107.13	827.95	390.69	-50.499	65.516	-103.85	89.094	1371.7	254.64	157.62	578.81	-186.51	197.14	962.1	215.31	107.46	342.73	-108.45	66.577	1224	337	111.17	937.35	370.31	92.178	1387.9	-105.29	132.41	507.17	-175.92	79.366	1244.5	-190.84	41.472	288.53	-104.46	-20.428	228.32	-100.98	-23.296	45.483	-122.37	166.08	637.91	207.72	234.91	1243.3	85.373	149.59	665.73	-198.46	53.133	1580	152.39	204.41	672.8	-173.43	30.192	1101.7	-232.15	110.97	640.83	232.05	96.595	462.09	195.76	167.16	1354.6	76.119	171.42	991.3	-132.39	101.48	555.54	213.3	111.23	875.86	-294.85	108.57	992.85	-259.13	-45.236	1307.2	176.33	4.7949	1420.6	90.95	132.47	719.51	248.8	220.2	35.58	84.74	211.89	27.002	177.38	-62.65	991.72	-41.023	157.8	837.07	-292.87	32.788	26.674	129.65	262.95	33.481	91.327	86.959	64.767	171.99	144.38	750.21	-210.11	62.662	1573.4	16.417	-62.833	985.94	93.158	124.71	274.32	175.86	133.53	269.17	115.22	149.02	354.74	110.96	33.066	1057.7	368.95	130.37	184.34	117.54	103.61	74.562	86.81	17.177	312.1	-155.32	-97.195	84.565	-172.42	157.41	882.3	-236.09	143.96	839.78	327.51	-7.3779	1044.5	286.97	-136.11	197.53	-130.93	-97.288	176.33	-58.862	-40.102	1091.7	47.552	-182.79	194.06	-68.366	53.212	1064.9	-135.12
666	3.33	158.78	780.9	371.2	220.48	1586.6	34.952	227.4	1582.7	132.27	113.63	828.64	391.9	-36.882	65.031	-104.34	94.09	1371.9	255.01	163.95	579.71	-186.6	200.78	961.03	215.69	116.87	343.32	-108.81	71.719	1224.1	337.42	117.18	938.01	371.24	96.776	1387.8	-104.9	139.71	507.91	-175.75	83.254	1244.3	-190.33	51.483	288.29	-104.75	-9.7593	227.5	-101.32	-9.2208	45.403	-122.84	168.23	637.48	208.1	239.4	1242.6	85.298	155.33	666.58	-198.54	57.819	1580.2	152.85	210.19	674.05	-173.66	33.323	1101.9	-231.62	113.09	640.75	232.37	97.747	462.1	195.89	171.67	1354.6	76.527	175	990.65	-132.31	103.2	555.53	213.5	111.34	875.24	-295.3	110.36	992.2	-259.36	-40.658	1307.6	177.13	9.3575	1420.9	91.384	135.02	719.31	249.27	220.23	35.611	84.769	211.87	26.989	177.42	-58.756	992.15	-40.606	157.57	836.09	-293.92	32.778	26.688	129.59	263.03	33.469	91.41	86.98	64.792	171.93	149.5	751.07	-210.16	67.251	1573.5	16.875	-58.912	986.44	93.583	125.24	274.28	175.95	134.15	269.12	115.32	149.84	354.65	111.11	38.583	1058	369.82	130.75	184.29	117.62	103.68	74.562	86.773	26.653	311.96	-155.37	-83.715	83.523	-172.93	158.14	881.09	-237	150.33	840.49	328.65	-2.013	1044.5	287.93	-125.07	195.26	-130.96	-85.975	174.44	-58.937	-35.948	1092.1	48.051	-172.07	190.49	-68.506	54.318	1064.6	-134.48
